<svg xmlns="http://www.w3.org/2000/svg" width="45" height="70" viewBox="0 0 45 70">
  <defs>
    <style>
      .cls-1 {
        fill: #42dc50;
      }
    </style>
  </defs>
  <path id="Icon_open-lightbulb" data-name="Icon open-lightbulb" class="cls-1" d="M30.571.033a4.462,4.462,0,0,0-1.152.524L2.831,13.659a4.344,4.344,0,0,0-.975,7.975,4.485,4.485,0,0,0,4.875-.288l26.588-13.1a4.343,4.343,0,0,0,2.235-5.278A4.438,4.438,0,0,0,30.571.033Zm8.863,13.1a4.462,4.462,0,0,0-1.152.524L2.831,31.128A4.344,4.344,0,0,0,1.856,39.1a4.485,4.485,0,0,0,4.875-.288L42.181,21.345a4.343,4.343,0,0,0,2.235-5.278A4.438,4.438,0,0,0,39.434,13.135Zm0,17.469a4.462,4.462,0,0,0-1.152.524l-26.588,13.1A4.345,4.345,0,0,0,9.479,49.07a4.416,4.416,0,0,0,4.165,3.37H31.369a4.48,4.48,0,0,0,5.14-3.669,4.431,4.431,0,0,0-3.722-5.066l9.395-4.891a4.343,4.343,0,0,0,2.235-5.278A4.438,4.438,0,0,0,39.434,30.6ZM16.745,61.174a4.431,4.431,0,0,0-3.722,5.066,4.48,4.48,0,0,0,5.14,3.668h8.863a4.368,4.368,0,1,0,0-8.735H18.163a4.5,4.5,0,0,0-.8,0,4.5,4.5,0,0,0-.532,0Z" transform="translate(0.36 0.035)"/>
</svg>
